<svg class="icon" width="200" height="200" viewBox="0 0 1024 1024" xmlns="http://www.w3.org/2000/svg">
    <path d="M485.952 0C252.928 0 64 187.776 64 419.456c0 115.84 47.232 220.672 123.52 296.576l298.432 296.576 298.304-296.576a416.896 416.896 0 0 0 123.584-296.576C907.84 187.776 718.976 0 485.952 0z m0 605.76a189.184 189.184 0 0 1-132.928-54.784 184.704 184.704 0 0 1-54.656-131.648c-0.192-49.28 19.52-96.64 54.72-131.584a189.12 189.12 0 0 1 132.864-54.72c49.92 0.128 97.664 19.84 132.864 54.784 35.2 35.008 54.848 82.368 54.656 131.648 0.192 49.28-19.52 96.64-54.656 131.648a189.12 189.12 0 0 1-132.864 54.72z"></path>
</svg>
