<svg class="icon" width="200" height="200" viewBox="0 0 1117 1024" xmlns="http://www.w3.org/2000/svg">
    <path d="M558.5451 0l558.546 219.415v73.263h-74.566a33.978 33.978 0 0 1-12.009 25.786 40.308 40.308 0 0 1-28.206 10.799H114.6881a40.03 40.03 0 0 1-28.207-10.799 33.792 33.792 0 0 1-12.101-25.786H0.0001v-73.263L558.5451 0z m518.33 914.153a40.03 40.03 0 0 1 28.207 10.798c7.913 7.261 12.009 15.826 12.009 25.786V1024H0.0001v-73.263a33.513 33.513 0 0 1 12.009-25.786 40.308 40.308 0 0 1 28.206-10.798h1036.66zM149.0401 365.568h148.945v438.83h74.566v-438.83h148.852v438.83h74.845v-438.83H745.1001v438.83h74.286v-438.83H968.2401v438.83h34.35a40.03 40.03 0 0 1 28.207 10.892c7.912 7.261 12.008 15.826 12.008 25.786v36.492H74.5661v-36.492a33.513 33.513 0 0 1 12.009-25.786A40.308 40.308 0 0 1 114.7801 804.4h34.35l-0.186-438.831z"></path>
</svg>
