<svg class="icon" width="200" height="200" viewBox="0 0 2775 1024" xmlns="http://www.w3.org/2000/svg">
    <path d="M1039.153533 1014.655321H6.187693L484.281662 0h71.600444l483.271427 1014.655321zM1589.353064 1012.382291h-43.945246l0.378839-406.998643-184.115428 311.783944h-32.453816L1144.344309 603.489456l-0.883956 408.892835h-43.440129V511.558022h39.020348l205.709212 350.046615 204.067579-350.046615h40.535701v500.824269zM1678.63263 654.506351h41.293378v361.159206h-41.293378zM1678.63263 514.841287h41.293378v70.590209h-41.293378zM2111.51856 753.256875c-1.136515-44.450364-26.644962-97.235171-109.989395-102.917746-65.917869-4.54606-130.825503 47.354791-144.337403 88.39561v-84.228388h-41.293377v361.159206h41.293377V825.236157c-0.757677-69.074855 63.897398-135.371562 130.951782-136.886915 53.542484-1.262794 81.829079 36.747318 81.829079 81.829078v245.613516h41.293378V754.772228zM2473.309163 921.96621a134.992724 134.992724 0 0 1-112.893822 63.139722 139.791343 139.791343 0 0 1-136.381798-130.951782h313.046738c0-5.556295 0.757677-11.112591 0.757677-16.668887 0-103.044025-79.429769-186.514737-176.79122-186.514736s-176.79122 83.470712-176.791219 186.514736 79.429769 186.514737 176.791219 186.514737a175.780984 175.780984 0 0 0 152.924405-92.057714z m-112.893822-234.627204a139.917622 139.917622 0 0 1 136.381798 132.467135h-272.889875a139.917622 139.917622 0 0 1 136.508077-132.467135zM2774.990751 656.147984a123.248736 123.248736 0 0 0-16.668886-1.136515 124.132692 124.132692 0 0 0-115.924529 80.692564v-80.692564h-42.556172v360.780367h42.556172V811.597978a124.132692 124.132692 0 0 1 123.501295-116.934764h8.839561z"
          fill="#FFFFFF"></path>
    <path d="M520.650142 80.061167L369.746208 410.281909l269.859169-71.853003 1.641632-0.631397-120.596867-257.736342z"
          fill="#E9624C"></path>
    <path d="M256.852386 657.03194l385.909977 121.859662 100.392157-222.756937-76.272784-163.279319-333.251449 96.098656-76.777901 168.077938z"
          fill="#2A698D"></path>
    <path d="M92.689111 1015.791836h865.266741L773.966704 622.052534l-102.286349 232.227895-442.735726-136.381798L92.689111 1015.791836z"
          fill="#233D7E"></path>
    <path d="M484.281662 0H0v1015.791836h6.187693L483.650265 1.641633l0.631397-1.641633zM555.376989 0l0.505117 1.136515 483.271427 1014.655321h4.293501V0H555.376989z"
          fill="#3C3837"></path>
</svg>
