<svg class="icon" width="200" height="200" viewBox="0 0 1024 1024" xmlns="http://www.w3.org/2000/svg">
    <path d="M511.8 423c-82.4 0-149.2 66.8-149.2 149.2s66.8 149.2 149.2 149.2S661 654.6 661 572.2c-0.1-82.4-66.9-149.2-149.2-149.2zM840 244h-89.6L710 163.2c-11.8-23.6-36-38.6-62.5-38.6H376c-26.5 0-50.7 15-62.5 38.6L273.1 244h-89.6c-65.9 0-119.3 53.4-119.3 119.3V781c0 65.9 53.4 119.3 119.3 119.3H840c65.9 0 119.3-53.4 119.3-119.3V363.3c0-65.9-53.4-119.3-119.3-119.3zM511.8 825.8c-140.1 0-253.6-113.5-253.6-253.6s113.5-253.6 253.6-253.6 253.6 113.5 253.6 253.6c0 140-113.5 253.6-253.6 253.6z"
          fill="#515151"></path>
</svg>
