<svg class="icon" width="200" height="200" viewBox="0 0 1024 1024" xmlns="http://www.w3.org/2000/svg">
    <path d="M500.394667 416.682667l1.194666-0.768a63.146667 63.146667 0 0 1-2.816-7.765334l1.706667 8.533334z m178.517333 228.010666c-1.962667-0.853333-6.485333 0.597333-8.192-2.56-1.109333 9.130667 0.512 12.458667 8.192 2.56zM497.493333 0C222.634667 0 0 229.205333 0 512s222.72 512 497.408 512 497.322667-229.205333 497.322667-512-222.72-512-497.322667-512z m320.426667 200.106667c-17.322667 0.512-29.44 0.597333-43.52 10.410666-5.546667 3.925333-9.386667 9.216-16.554667 11.178667-6.4 1.877333-13.312 0.256-19.626666 2.474667-23.04 7.850667-19.370667 57.856-49.664 50.346666-14.165333-3.584-24.149333-20.650667-31.317334-31.829333-6.314667-9.728-17.749333-17.92-10.069333-30.122667-3.498667 0.853333-7.253333-0.170667-10.752 0.512 4.864-10.752 21.077333-9.813333 23.808-15.36 6.741333-13.824-18.517333-15.36-25.685333-17.237333 8.618667-9.301333 12.970667 3.157333 21.504 1.024 8.192-2.048-4.266667-12.970667-9.216-14.165333-1.706667-0.426667-30.549333 8.106667-13.909334-7.082667l-61.781333-40.021333c-3.413333 14.848 27.477333 23.296 37.546667 28.501333-1.621333 6.144-11.008 15.018667-18.176 12.458667-6.741333-2.56-4.010667-13.909333-14.250667-12.8-7.253333 17.322667 15.445333 12.288 17.578667 22.784 2.389333 12.032-8.533333 6.912-12.8 6.741333-1.024 0-8.874667-8.362667-9.386667-2.048-0.426667 7.424 12.629333 4.522667 13.568 12.032-15.274667 0.597333-23.04-4.949333-35.413333-13.312-14.506667-9.728-21.845333-8.874667-39.594667-8.874667 5.290667-2.218667 12.629333-3.84 17.066667-7.424a79.872 79.872 0 0 0 12.885333-13.653333c2.730667-9.216-0.170667-8.533333-8.789333-14.506667-7.765333-5.461333-17.066667-15.104-26.453334-17.066666-33.962667-6.826667-10.496 31.232-36.266666 36.437333h1.28-1.450667 0.170667c-5.973333-0.170667-17.152-1.706667-20.992 1.536-2.730667 2.218667-2.986667 11.264-5.973334 14.506667-5.376 5.888-13.482667 7.082667-19.882666 11.264-6.314667 4.096-20.138667 14.677333-23.893334 21.845333-13.568 26.368 30.72 34.56 47.445334 42.24 7.68 3.498667 29.781333 8.277333 33.877333 14.08 5.546667 7.850667-4.778667 15.189333 6.826667 20.650667 3.669333 1.706667 11.264 2.133333 14.506666-1.450667 5.12-5.973333-2.133333-7.253333-3.413333-14.08-2.389333-13.141333 1.536-7.936 8.106667-12.8 13.226667-9.984 10.24-10.581333 5.461333-26.453333-2.218667-7.338667-10.581333-27.989333-3.242667-33.365334 9.642667-7.168 30.037333 3.84 37.376 4.693334 8.533333 1.109333 13.482667 13.141333 18.090667 18.090666 3.157333 3.242667 8.618667 10.24 14.08 9.386667 8.533333-1.109333 4.949333-8.789333 9.984-12.288 13.312-9.386667 16.896 3.413333 22.186667 16.213333 5.034667 11.946667 9.728 16.384 18.688 24.149334 4.096 3.584 22.186667 16.384 20.48 24.234666-1.109333 5.376-21.845333 13.397333-27.306667 15.189334-20.309333 6.485333-58.368-10.666667-62.378667 21.930666 7.850667-2.901333 30.208-21.504 36.864-12.714666 3.072 4.010667-2.389333 9.813333-1.109333 13.738666 3.84 11.946667 12.8 7.765333 22.272 5.888a15.36 15.36 0 0 1-1.962667 1.024c12.885333-6.741333 11.605333-5.290667 17.493334-16.213333 1.962667-3.584 4.864-12.288 7.594666-14.848 9.386667-8.789333 10.837333-2.730667 16.64 4.096 1.536 1.706667 15.872 22.784 10.752 21.76-16.725333-3.413333-32.768-2.986667-46.677333 6.314667-8.021333 5.376-15.530667 12.629333-25.088 16.213333-2.304 0.853333-19.285333 2.474667-17.237333-0.512 2.901333-4.266667 12.970667-7.082667 16.981333-11.690667-11.093333-4.608-20.224 5.546667-28.842667 11.52-9.216 4.352-11.349333 12.629333-19.2 19.797334-3.413333 3.157333-9.813333 3.669333-13.226666 7.850666-3.242667 4.010667-3.584 10.325333-6.741334 14.165334-2.133333 2.56-7.68 1.024-9.898666 5.12-2.986667 5.12 2.645333 10.069333 1.450666 13.824-2.304 6.826667-15.189333 12.8-20.138666 17.664l1.962666-1.962667c-4.949333 5.290667-11.178667 9.216-15.104 15.36 1.792 8.533333 7.424 29.184 5.888 33.962667-5.205333 15.616-15.189333-8.533333-19.285333-14.762667-13.994667-21.333333-41.898667-7.082667-61.013333-5.290667-24.32 2.304-48.298667 34.474667-33.28 60.586667a29.269333 29.269333 0 0 0 33.365333 14.506667c12.458667-2.645333 16.213333-20.309333 27.818667-20.565334 21.504-0.597333 0.512 21.333333-1.365334 29.354667-1.706667 7.509333 2.645333 8.192 10.24 10.069333 5.546667 1.365333 13.482667-2.474667 18.346667 0.853334 2.986667 1.962667 2.901333 13.141333 7.082667 9.642666-8.277333 6.912-6.314667 23.466667 2.133333 29.354667 9.386667 6.656 20.48 0.512 30.293333 3.072 18.517333 4.778667 9.642667-1.450667 25.941334-11.434667 11.093333-6.741333 12.8 1.28 20.309333 1.28 5.12 0 8.362667-7.424 16.981333-5.290666 6.912 1.792 9.728 7.253333 18.005334 8.533333 3.413333 0.512 6.912-1.28 10.24-0.938667 15.36 1.706667 27.136 11.690667 39.253333 20.736 9.984 7.424 16.64 5.973333 28.330667 9.386667 8.533333 2.474667 24.234667 15.018667 23.466666 26.026667-0.170667 1.962667-7.68 11.861333-8.874666 16.213333 2.133333 1.621333 17.322667-1.792 21.76-2.133333-1.450667 1.706667-11.776 9.130667-11.776 5.12 0 2.048 7.338667 6.144 9.130666 7.424 5.376-17.749333 14.250667-6.314667 24.917334-1.877334 9.045333 3.754667 20.224 3.925333 29.866666 6.314667 8.192 1.962667 26.282667 7.594667 32.426667 14.421333 7.253333 8.192 2.218667 21.504-3.157333 29.610667-7.082667 10.752-17.834667 14.848-22.186667 27.392-3.498667 9.984-0.853333 20.053333-2.901333 31.146667-2.730667 14.933333-4.864 9.728-14.336 18.773333-8.021333 7.68-0.170667 6.4-11.093334 11.349333-10.837333 4.864-20.48 3.413333-27.989333 15.616a19.712 19.712 0 0 0 0.682667-2.304c-3.157333 4.522667-4.778667 13.824-6.229334 16.810667-3.84 7.765333-9.130667 12.714667-15.104 19.2-2.304 2.474667-23.552 31.914667-24.746666 29.525333-1.621333-3.072-18.346667 3.157333-19.2-1.28 0.682667 3.669333-0.085333 2.474667 4.010666 4.608-3.84 24.234667-13.909333 27.818667-37.290666 28.074667 1.962667 11.605333-8.533333 9.301333-13.397334 15.530667-2.816 3.669333-4.266667 13.994667-6.229333 18.773333-1.194667 2.901333-10.325333 14.848-10.325333 17.152 0 2.218667 3.072 5.376 5.973333 8.448-16.554667 3.328-33.28 5.632-50.432 6.997333 3.157333-4.096 3.925333-7.68-6.229333-8.192 2.730667-7.509333 9.130667-11.776 11.861333-19.114666 1.28-3.413333 0.170667-4.778667 1.28-8.192 3.754667-11.776 2.133333-7.338667 0-16.469334-4.949333-21.418667 1.706667-27.306667 7.509333-46.933333 5.973333-20.138667 5.376-46.250667 9.130667-67.925333 1.792-10.410667 4.778667-32 1.194667-41.813334-4.010667-11.093333-21.589333-19.797333-29.696-27.306666-11.434667-10.496-17.493333-21.930667-25.941334-34.986667-4.266667-6.656-9.216-13.141333-12.544-20.394667-7.168-15.36 0-6.229333 1.194667-15.36 1.194667-8.789333-1.024-16.64 2.389333-25.856 3.84-10.24 13.312-16.554667 16.384-26.794666 2.816-9.216 0.682667-20.736-8.533333-23.808-5.12-1.706667-10.837333 2.304-16.042667 1.365333a54.016 54.016 0 0 1-21.162666-11.093333c-7.850667-6.058667-10.837333-16.042667-19.285334-21.845334-7.082667-4.864-12.117333-1.962667-19.626666-4.266666-7.936-2.304-12.8-12.202667-19.114667-15.274667-9.557333-4.608-14.933333 2.048-25.002667 0.682667-8.533333-1.109333-21.589333-10.752-29.610666-14.506667-16.213333-7.338667-26.197333-15.530667-32.682667-32.256-5.632-14.421333-13.653333-21.077333-23.296-33.109333-9.642667-12.117333-12.714667-22.442667-27.648-25.685334-1.706667-0.426667 3.669333 12.8 4.266667 13.824 5.290667 9.984 13.312 19.2 19.712 28.501334 9.557333 13.824 5.461333 16.384-4.181334 3.072-11.093333-15.274667-23.893333-30.378667-33.450666-46.506667-3.584-6.144-2.901333-10.069333-8.874667-15.872-5.717333-5.546667-13.312-8.277333-19.114667-13.653333-20.906667-19.029333-24.746667-44.544-22.272-71.68 0.768-8.96 3.925333-16.042667 2.56-24.576a34.048 34.048 0 0 0-10.410666-18.090667l-6.058667-9.728c-4.778667-8.021333-8.533333-15.872-16.042667-22.442667a383.402667 383.402667 0 0 0-26.026666-20.053333A449.962667 449.962667 0 0 1 326.570667 92.16a27.136 27.136 0 0 0 4.352 10.752c5.888 8.789333 11.434667 8.021333 22.869333 10.496-1.28 13.397333-16.725333 13.568-27.221333 12.117333-12.458667-1.706667-25.6-5.973333-36.437334 5.12 5.973333 3.669333 22.442667 17.92 20.224 3.072a201.386667 201.386667 0 0 1 35.242667 0.426667c4.693333 0.597333 20.48 5.973333 24.746667 3.498667 1.706667-1.024 3.669333-9.984 5.546666-12.8-3.413333 0.085333-6.912-1.621333-10.24-1.28 7.68-10.069333 15.445333-2.218667 25.344 2.474666-10.837333 6.656-4.437333 22.784 6.229334 9.728 8.704-10.752-2.218667-18.517333-13.226667-24.746666 11.093333-14.250667 18.005333-15.530667 28.586667 0.512 1.706667-9.898667 9.557333-5.973333 17.749333-5.205334v-2.56c-3.584 0.170667-7.424-1.962667-11.093333-1.621333 8.448-13.482667 3.072-16.64 15.018666-20.992 9.557333-3.584 36.693333-0.256 40.021334-9.386667-19.029333 3.754667-41.984 4.693333-59.136 13.482667-7.338667 3.754667-16.213333 15.701333-23.552 7.936-7.594667-7.936 5.376-20.821333 12.032-24.746667h-1.536A440.661333 440.661333 0 0 1 556.032 62.890667c-6.826667 3.669333-1.706667 6.144-6.826667 9.898666-9.557333 7.168-26.538667 13.141333-37.973333 17.664 14.506667 0 49.578667 13.824 56.32-6.826666L553.557333 81.322667c8.704-5.888 18.517333-10.581333 28.757334-14.08A445.013333 445.013333 0 0 1 819.2 200.106667h-1.365333z m89.770667 168.448c0.682667-1.536 2.304-2.048 2.986666-3.328 1.365333-2.645333 1.109333-4.522667 2.816-6.826667 1.877333-2.56 4.266667-3.072 6.4-5.12a7.936 7.936 0 0 0 1.706667-2.218667c6.144 18.261333 11.093333 37.034667 14.677333 56.32l-0.256 0.512a29.525333 29.525333 0 0 1-8.021333 1.706667c-4.266667 0.170667-7.424-2.816-10.496-5.632a51.2 51.2 0 0 1-8.96-10.325333c-2.389333-3.925333-0.938667-7.936-0.853333-12.458667 0.256-3.754667-1.536-9.216 0-12.629333z m-4.096 232.448a129.194667 129.194667 0 0 1-22.186667-26.368c-5.888-9.984-2.304-20.224-1.877333-31.744 0.341333-9.557333-3.925333-23.296-0.170667-32 1.706667-3.925333 5.717333-5.205333 7.338667-8.533334 3.413333-6.826667 2.645333-11.434667 6.912-17.322666 4.608-6.4 10.752-7.936 15.872-12.885334 5.290667-5.205333 5.12-9.386667 8.533333-16.042666a59.477333 59.477333 0 0 1 13.738667-17.237334 466.432 466.432 0 0 1-8.789334 175.530667c-7.424-2.048-13.482667-7.850667-19.370666-13.397333z"></path>
</svg>
