<svg class="icon" width="200" height="200" viewBox="0 0 1316 1024" xmlns="http://www.w3.org/2000/svg">
    <path d="M668.745143 700.342857a22.016 22.016 0 0 1-20.772572 0L292.571429 512v219.209143c0 10.532571 5.12 19.894857 13.531428 24.649143l341.284572 192.146285a22.235429 22.235429 0 0 0 21.796571 0l341.284571-192.146285A28.013714 28.013714 0 0 0 1024 731.209143V512.146286L668.745143 700.342857"></path>
    <path d="M1299.382857 248.758857L668.16 1.901714a26.916571 26.916571 0 0 0-19.968 0L17.334857 248.758857a26.770286 26.770286 0 0 0-17.334857 24.868572c0 11.044571 6.875429 20.845714 17.334857 24.868571l233.325714 91.209143v40.228571l407.698286 189.147429 407.698286-189.147429v-40.228571l108.690286-42.496v650.020571c0 14.774857 12.141714 26.770286 27.209142 26.770286a26.989714 26.989714 0 0 0 27.209143-26.770286v-669.988571l-0.219428-1.170286 70.436571-27.574857A26.843429 26.843429 0 0 0 1316.571429 273.554286a27.062857 27.062857 0 0 0-17.188572-24.868572"></path>
</svg>
