<svg class="icon" width="200" height="200" viewBox="0 0 1024 1024" xmlns="http://www.w3.org/2000/svg">
    <path d="M966.656 870.6048a28.330667 28.330667 0 0 1-28.330667-28.330667V151.108267a63.3856 63.3856 0 0 0-63.522133-63.419734H184.149333a28.330667 28.330667 0 0 1 0-56.661333h690.653867a120.149333 120.149333 0 0 1 120.2176 120.081067v691.0976a28.330667 28.330667 0 0 1-28.330667 28.330666z"></path>
    <path d="M768.2048 992.938667H133.085867A102.058667 102.058667 0 0 1 31.061333 890.88V255.317333A102.058667 102.058667 0 0 1 133.12 153.258667h635.118933a102.058667 102.058667 0 0 1 102.058667 102.058666v635.767467a102.058667 102.058667 0 0 1-102.058667 101.888zM133.085867 210.1248c-25.053867 0-45.3632 20.309333-45.3632 45.397333v635.562667c0 25.088 20.309333 45.397333 45.397333 45.397333h635.0848c25.053867 0 45.3632-20.309333 45.3632-45.397333V255.317333c0-25.053867-20.309333-45.3632-45.397333-45.3632L133.12 210.090667z"></path>
    <path d="M653.892267 715.6736a19.387733 19.387733 0 0 1-6.997334 15.223467 24.7808 24.7808 0 0 1-16.9984 6.0416 21.538133 21.538133 0 0 1-21.265066-14.574934l-42.871467-98.440533h-229.034667l-43.690666 98.440533a21.538133 21.538133 0 0 1-21.2992 14.574934 24.917333 24.917333 0 0 1-16.9984-6.382934 19.797333 19.797333 0 0 1-7.338667-15.496533 21.162667 21.162667 0 0 1 2.4576-9.693867l173.738667-386.4576a26.146133 26.146133 0 0 1 10.922666-12.731733 30.993067 30.993067 0 0 1 16.145067-4.266667 30.583467 30.583467 0 0 1 16.384 4.539734 28.330667 28.330667 0 0 1 10.922667 12.458666l173.738666 386.4576a22.289067 22.289067 0 0 1 2.184534 10.308267z m-106.325334-133.085867l-96.426666-218.077866-96.1536 218.112h192.580266z"></path>
    <path d="M630.1696 742.6048a27.170133 27.170133 0 0 1-26.4192-18.090667l-41.642667-94.890666H340.445867L298.154667 724.650667a27.0336 27.0336 0 0 1-26.4192 17.954133 30.446933 30.446933 0 0 1-20.753067-7.816533 25.2928 25.2928 0 0 1-9.216-19.729067 27.682133 27.682133 0 0 1 2.9696-12.253867L418.474667 316.586667a31.982933 31.982933 0 0 1 13.277866-15.291734c11.776-6.826667 26.385067-6.690133 38.024534 0.375467a34.030933 34.030933 0 0 1 13.1072 14.882133l173.738666 386.423467a28.398933 28.398933 0 0 1 2.9696 12.6976 24.746667 24.746667 0 0 1-8.977066 19.456 30.344533 30.344533 0 0 1-20.411734 7.509333z m-297.130667-124.347733h236.680534L614.4 720.315733a15.940267 15.940267 0 0 0 16.042667 11.3664 18.875733 18.875733 0 0 0 12.970666-4.7104 13.550933 13.550933 0 0 0 5.051734-10.922666 17.8176 17.8176 0 0 0-1.809067-7.7824l-174.08-387.037867a23.415467 23.415467 0 0 0-8.8064-9.966933 24.507733 24.507733 0 0 0-13.073067-3.6864 24.951467 24.951467 0 0 0-12.970666 3.447466 20.6848 20.6848 0 0 0-8.6016 10.171734l-174.08 386.491733a16.4864 16.4864 0 0 0-1.911467 7.3728 14.1312 14.1312 0 0 0 5.3248 11.332267 19.456 19.456 0 0 0 13.312 4.983466 15.872 15.872 0 0 0 16.008533-11.332266l45.294934-101.7856z m223.232-30.0032h-209.783466l104.448-237.806934 105.335466 237.806934z m-192.785066-11.332267h175.342933l-87.8592-198.4512-87.483733 198.4512z m279.9616 291.157333H269.175467a28.330667 28.330667 0 0 1 0-56.7296h374.272a28.330667 28.330667 0 0 1 0 56.695467z"></path>
</svg>
