<svg class="icon" width="200" height="200" viewBox="0 0 1024 1024" xmlns="http://www.w3.org/2000/svg">
    <path d="M966.656 870.6048a28.330667 28.330667 0 0 1-28.330667-28.330667V151.108267a63.3856 63.3856 0 0 0-63.522133-63.419734H184.149333a28.330667 28.330667 0 0 1 0-56.661333h690.653867a120.149333 120.149333 0 0 1 120.2176 120.081067v691.0976a28.330667 28.330667 0 0 1-28.330667 28.330666z"></path>
    <path d="M768.2048 992.938667H133.085867A102.058667 102.058667 0 0 1 31.061333 890.88V255.317333A102.058667 102.058667 0 0 1 133.12 153.258667h635.118933a102.058667 102.058667 0 0 1 102.058667 102.058666v635.767467a102.058667 102.058667 0 0 1-102.058667 101.888zM133.085867 210.1248c-25.053867 0-45.3632 20.309333-45.3632 45.397333v635.562667c0 25.088 20.309333 45.397333 45.397333 45.397333h635.0848c25.053867 0 45.3632-20.309333 45.3632-45.397333V255.317333c0-25.053867-20.309333-45.3632-45.397333-45.3632L133.12 210.090667z"></path>
    <path d="M643.413333 868.0448H269.2096a28.330667 28.330667 0 0 1 0-56.695467h374.272a28.330667 28.330667 0 0 1 0 56.695467zM290.133333 341.333333h341.333334a34.133333 34.133333 0 0 1 34.133333 34.133334v170.666666a34.133333 34.133333 0 0 1-34.133333 34.133334h-341.333334a34.133333 34.133333 0 0 1-34.133333-34.133334v-170.666666a34.133333 34.133333 0 0 1 34.133333-34.133334z m15.701334 49.834667v139.264h309.930666v-139.264H305.834667z"></path>
    <path d="M435.882667 324.266667v409.6a24.917333 24.917333 0 1 0 49.834666 0v-409.6a24.917333 24.917333 0 1 0-49.834666 0z"></path>
</svg>
