<svg class="icon" width="200" height="200" viewBox="0 0 1024 1024" xmlns="http://www.w3.org/2000/svg">
    <path d="M507.648 58.816L438.656 340.224l-74.048-89.6L143.104 433.28s-16.64-20.672-37.056-45.376l-37.504-45.568 222.72-181.44L217.92 71.04 507.648 58.816z m393.6 127.232l-69.056 281.408L758.848 377.6 314.24 741.376s-16-19.712-36.352-44.416l-36.8-44.672L684.8 288 611.2 198.72l290.048-12.672z m19.776 398.016l-75.136 286.976-73.344-89.792-259.712 212.864-36.736-44.672-35.456-42.88 258.304-214.656-73.344-89.856 295.424-17.984z"></path>
</svg>
