<svg class="icon" width="200" height="200" viewBox="0 0 1024 1024" xmlns="http://www.w3.org/2000/svg">
    <path d="M828.373333 286.08l-175.786666-175.786667A85.333333 85.333333 0 0 0 592.213333 85.333333H277.333333a106.666667 106.666667 0 0 0-106.666666 106.666667v640a106.666667 106.666667 0 0 0 106.666666 106.666667h469.333334a106.666667 106.666667 0 0 0 106.666666-106.666667V346.453333a85.333333 85.333333 0 0 0-24.96-60.373333z m-188.373333-128L780.586667 298.666667H661.333333a21.333333 21.333333 0 0 1-21.333333-21.333334zM810.666667 832a64 64 0 0 1-64 64H277.333333a64 64 0 0 1-64-64V192a64 64 0 0 1 64-64h320v149.333333a64 64 0 0 0 64 64h149.333334z"></path>
    <path d="M573.866667 612.48a360.32 360.32 0 0 1-40.533334-46.933333 320 320 0 0 1-24.32-39.253334 362.666667 362.666667 0 0 0 21.333334-104.746666c0-28.8-10.24-58.88-40.32-58.88a27.733333 27.733333 0 0 0-22.826667 13.653333c-13.44 24.32-7.68 77.44 15.786667 129.493333-8.746667 26.24-17.706667 51.413333-29.226667 79.146667a756.266667 756.266667 0 0 1-33.066667 70.4c-67.2 27.306667-110.506667 59.093333-114.56 83.84a27.52 27.52 0 0 0 8.106667 24.746667 38.613333 38.613333 0 0 0 25.6 9.386666c44.586667 0 91.52-73.386667 115.413333-117.973333 18.133333-6.186667 36.693333-11.946667 54.826667-17.28a512 512 0 0 1 58.24-13.226667 165.546667 165.546667 0 0 0 109.226667 49.92c25.6 0 34.986667-10.666667 37.973333-19.413333a29.44 29.44 0 0 0-4.48-30.08v1.706667a99.84 99.84 0 0 0-72.32-21.333334 349.866667 349.866667 0 0 0-64.853333 6.826667z m-242.133334 146.773333a17.066667 17.066667 0 0 1-9.386666-3.2 14.506667 14.506667 0 0 1-4.48-13.226666c3.626667-18.56 38.613333-44.586667 92.8-68.48-30.933333 52.053333-60.8 84.906667-78.933334 84.906666zM477.44 384a14.72 14.72 0 0 1 11.52-7.466667c12.8 0 15.146667 15.146667 15.146667 27.093334a344.106667 344.106667 0 0 1-16.426667 85.333333C469.333333 440.106667 469.333333 399.786667 477.44 384z m29.653333 244.053333c-14.08 4.053333-28.8 7.893333-42.666666 13.226667 7.893333-15.36 14.506667-30.506667 21.333333-44.586667 7.68-17.706667 13.44-35.413333 19.626667-52.053333 6.186667 10.453333 12.8 21.333333 19.413333 30.506667 11.093333 14.506667 22.4 28.586667 33.92 40.96-17.066667 2.56-33.92 6.826667-51.626667 11.733333z m179.84 17.28a21.333333 21.333333 0 0 1-23.68 15.573334 40.96 40.96 0 0 1-10.24-1.493334 165.546667 165.546667 0 0 1-67.2-36.266666 335.36 335.36 0 0 1 51.2-4.266667 121.813333 121.813333 0 0 1 30.933334 2.56 21.333333 21.333333 0 0 1 18.986666 23.68z"></path>
</svg>
