<svg class="icon" width="200" height="200" viewBox="0 0 1229 1024" xmlns="http://www.w3.org/2000/svg">
    <path d="M671.744 0l22.1184 34.4064 42.5984 61.44L753.664 220.3648l-63.8976 203.1616L827.392 616.0384l71.2704 22.9376h32.768l127.7952-22.9376 94.208 22.9376 42.5984 52.4288-24.576 52.4288-91.7504 6.5536-54.0672-6.5536-116.3264-53.248-57.344-52.4288L753.664 671.744l-60.6208 18.8416L565.248 721.7152l-49.152 54.8864-118.784 152.3712-120.4224 59.8016v35.2256H0V0h671.744z"
          fill="#FA6400"></path>
    <path d="M1210.7776 659.456c-31.1296-32.768-93.3888-51.6096-181.8624-51.6096-47.5136 0-101.5808 4.096-161.3824 15.5648-33.5872-32.768-67.1744-71.2704-99.9424-117.1456-22.9376-31.9488-43.4176-64.7168-60.6208-98.304 35.2256-108.9536 52.4288-197.4272 52.4288-261.3248C759.3984 74.5472 734.0032 0 658.6368 0c-22.9376 0-45.056 13.9264-57.344 34.4064-33.5872 60.6208-18.8416 192.512 40.1408 322.7648-22.1184 64.7168-44.2368 127.7952-72.9088 197.4272-24.576 58.1632-53.248 120.4224-82.7392 175.3088-167.936 67.9936-276.8896 147.456-286.72 209.7152-4.096 22.9376 3.2768 45.056 19.6608 61.44 5.7344 4.096 27.8528 22.9376 63.8976 22.9376 112.2304 0 229.376-182.6816 289.1776-294.0928 45.056-15.5648 91.7504-29.4912 137.6256-42.5984 49.9712-13.9264 100.7616-25.3952 145.8176-32.768 117.1456 107.3152 221.184 124.5184 273.6128 124.5184 63.8976 0 87.6544-26.2144 95.0272-48.3328 12.288-27.8528 3.2768-58.1632-11.4688-74.5472l-1.6384 3.2768z m-59.8016 45.056c-4.096 22.9376-27.8528 38.5024-59.8016 38.5024-9.0112 0-16.384-0.8192-25.3952-3.2768-58.9824-13.9264-113.0496-44.2368-167.936-90.112 54.0672-9.0112 99.9424-10.6496 128.6144-10.6496 31.9488 0 59.8016 0.8192 77.824 6.5536 20.48 4.096 53.248 18.0224 46.6944 58.9824z m-324.4032-72.9088c-40.1408 7.3728-81.92 18.0224-126.1568 29.4912-35.2256 9.8304-72.0896 19.6608-108.1344 32.768 19.6608-38.5024 36.864-76.1856 52.4288-111.4112 18.8416-44.2368 33.5872-88.4736 48.3328-130.2528 15.5648 26.2144 31.9488 53.248 48.3328 76.1856 27.8528 36.864 56.5248 72.0896 85.1968 103.2192zM626.688 53.248c6.5536-12.288 18.8416-18.8416 28.672-18.8416 31.9488 0 37.6832 37.6832 37.6832 67.1744 0 49.9712-15.5648 125.3376-40.96 212.992-44.2368-122.0608-47.5136-222.0032-25.3952-261.3248zM458.752 777.4208c-77.824 130.2528-153.1904 211.3536-198.2464 211.3536-9.0112 0-16.384-3.2768-22.9376-7.3728-9.0112-9.0112-13.1072-19.6608-11.4688-32.768 9.0112-46.6944 96.6656-112.2304 232.6528-171.2128z"
          fill="#FFFFFF"></path>
</svg>
