<svg class="icon" width="200" height="200" viewBox="0 0 1024 1024" xmlns="http://www.w3.org/2000/svg">
    <path d="M378.847129 644.372666c45.703818 45.874354 109.996128 86.462073 109.996128 86.462073s81.0049 59.858358 140.692722 23.619323c127.817206-78.361583 124.747547-105.562176 187.419759-70.346361 218.883768 122.53057 209.760058 203.791276 204.302886 223.82933-21.828689 78.702656-165.07946 142.568625-321.291016 103.430468A958.67168 958.67168 0 0 1 259.215681 764.004114 958.842216 958.842216 0 0 1 11.767028 323.252187C-27.200593 167.1259 36.494839 23.960397 115.282764 2.04644c20.038054-5.627709 101.384028-14.580882 223.914598 203.961812 35.045278 62.928017 8.10049 59.943626-70.175824 187.675564-36.665376 59.687821 23.27825 140.692722 23.27825 140.692722s40.928792 64.207042 86.547341 109.996128z"></path>
</svg>
