<svg class="icon" width="200" height="200" viewBox="0 0 1166 1024" xmlns="http://www.w3.org/2000/svg">
    <path d="M351.31 225.734V87.527H804.13v138.207h91.888V116.1c0-64.065-52.035-116.1-116.1-116.1H373.867c-64.066 0-116.1 52.035-116.1 116.1v109.634h93.541z"></path>
    <path d="M1129.423 515.384v-201.07c0-74.594-52.035-135.2-116.1-135.2H143.17c-64.066 0-116.1 60.606-116.1 135.2v201.07h1102.352zM835.412 656.75v117.002c0 51.885-42.26 94.144-94.144 94.144H415.375c-51.884 0-94.144-42.26-94.144-94.144V656.9H27.071v231.9c0 74.744 52.034 135.2 116.1 135.2h870.151c64.066 0 116.1-60.607 116.1-135.2V656.75h-294.01z"></path>
    <path d="M415.375 792.701h325.893c10.377 0 18.95-8.722 18.95-18.949V656.9H396.275v116.852c0 10.227 8.722 18.95 19.099 18.95z"></path>
</svg>
