<svg class="icon" width="200" height="200" viewBox="0 0 1024 1024" xmlns="http://www.w3.org/2000/svg">
    <path d="M279.272727 0v279.272727H0a279.272727 279.272727 0 0 1 279.272727-279.272727zM372.363636 0h279.272728v279.272727H372.363636zM744.727273 0a279.272727 279.272727 0 0 1 279.272727 279.272727h-279.272727V0z"></path>
    <path d="M0 372.363636h279.272727v279.272728H0zM372.363636 372.363636h279.272728v279.272728H372.363636zM744.727273 372.363636h279.272727v279.272728h-279.272727z"></path>
    <path d="M0 744.727273h279.272727v279.272727a279.272727 279.272727 0 0 1-279.272727-279.272727zM372.363636 744.727273h279.272728v279.272727H372.363636zM744.727273 744.727273h279.272727a279.272727 279.272727 0 0 1-279.272727 279.272727v-279.272727z"></path>
</svg>
