<svg class="icon" width="200" height="200" viewBox="0 0 1024 1024" xmlns="http://www.w3.org/2000/svg">
    <path d="M427.52 682.666667h170.666667v256h-170.666667zM237.653333 224.426667v293.546666A180.48 180.48 0 0 1 77.653333 341.333333V224.426667zM293.973333 170.666667H66.56A42.666667 42.666667 0 0 0 21.333333 213.333333v128a236.8 236.8 0 0 0 241.92 231.253334h30.293334z m652.373334 53.76v112.213333a186.026667 186.026667 0 0 1-160 180.48V224.426667zM957.866667 170.666667h-227.413334v402.773333h24.746667A242.346667 242.346667 0 0 0 1002.666667 336.64V213.333333a42.666667 42.666667 0 0 0-44.8-42.666666z"
          fill="#FFB300"></path>
    <path d="M844.373333 0H179.626667a30.293333 30.293333 0 1 0 0 60.586667h16.213333a30.72 30.72 0 0 0 0 3.413333v346.026667a316.586667 316.586667 0 0 0 632.746667 0V64a30.72 30.72 0 0 0 0-3.413333h16.213333a30.293333 30.293333 0 1 0 0-60.586667z"
          fill="#FFCA28"></path>
    <path d="M859.733333 1024H206.933333A60.586667 60.586667 0 0 1 149.333333 960.426667v-42.666667A60.586667 60.586667 0 0 1 206.933333 853.333333h652.8A60.586667 60.586667 0 0 1 917.333333 916.906667v42.666666A61.013333 61.013333 0 0 1 859.733333 1024z"
          fill="#FFB806"></path>
    <path d="M769.28 981.333333H297.386667a18.346667 18.346667 0 0 1-20.053334-15.786666v-10.666667a18.346667 18.346667 0 0 1 20.053334-16.213333h471.893333a18.346667 18.346667 0 0 1 20.053333 15.786666v10.666667a18.346667 18.346667 0 0 1-20.053333 16.213333z"
          fill="#FFFFFF"></path>
    <path d="M704 256l-341.333333 241.92L527.786667 725.333333a316.586667 316.586667 0 0 0 298.666666-316.586666z"
          fill="#FFB806"></path>
    <path d="M277.333333 362.666667A234.666667 234.666667 0 1 0 512 128 234.666667 234.666667 0 0 0 277.333333 362.666667z"
          fill="#FFF8E1"></path>
    <path d="M540.16 543.573333h-38.4V274.346667a198.4 198.4 0 0 1-36.266667 29.013333 245.333333 245.333333 0 0 1-40.533333 21.76v-42.666667a231.253333 231.253333 0 0 0 56.32-40.533333 155.306667 155.306667 0 0 0 34.133333-46.08h24.746667z"
          fill="#FFB806"></path>
</svg>
