<svg class="icon" width="200" height="200" viewBox="0 0 1024 1024" xmlns="http://www.w3.org/2000/svg">
    <path d="M507.904 301.195636m-301.195636 0a301.195636 301.195636 0 1 0 602.391272 0 301.195636 301.195636 0 1 0-602.391272 0Z"></path>
    <path d="M116.363636 813.195636a389.213091 210.804364 0 1 0 778.426182 0 389.213091 210.804364 0 1 0-778.426182 0Z"></path>
    <path d="M357.282909 240.919273m30.114909 0l271.080727 0q30.114909 0 30.11491 30.114909l0 0q0 30.114909-30.11491 30.114909l-271.080727 0q-30.114909 0-30.114909-30.114909l0 0q0-30.114909 30.114909-30.114909Z"></path>
    <path d="M537.972364 361.378909h120.506181a30.114909 30.114909 0 0 1 0 60.229818H537.972364a30.114909 30.114909 0 1 1 0-60.229818z"></path>
</svg>
