<svg class="icon" width="200" height="200" viewBox="0 0 1024 1024" xmlns="http://www.w3.org/2000/svg">
    <path d="M510.8736 0.7168A508.689067 508.689067 0 0 0 0.682667 510.8736c0 159.982933 74.205867 303.786667 187.835733 396.526933 88.098133 71.8848 199.406933 113.629867 322.321067 113.629867 122.88 0 234.1888-41.745067 322.321066-113.664 115.950933-92.740267 187.835733-236.509867 187.835734-396.4928A508.689067 508.689067 0 0 0 510.8736 0.682667z m0 973.9264c-102.058667 0-194.798933-32.4608-271.291733-88.132267 30.139733-122.88 141.448533-213.333333 271.291733-213.333333 129.8432 0 241.152 90.453333 271.291733 213.333333a457.284267 457.284267 0 0 1-271.291733 88.132267zM325.358933 441.309867c0-102.058667 83.490133-185.514667 185.514667-185.514667 102.024533 0 185.514667 83.490133 185.514667 185.514667 0 102.024533-83.490133 185.514667-185.514667 185.514666-102.058667 0-185.514667-83.490133-185.514667-185.514666z m493.909334 415.061333c-30.139733-97.3824-104.3456-176.2304-199.406934-208.6912a229.888 229.888 0 0 0 122.88-204.049067c0-127.556267-104.3456-231.901867-231.867733-231.901866-127.556267 0-231.901867 104.3456-231.901867 231.901866a229.888 229.888 0 0 0 122.88 204.049067 324.846933 324.846933 0 0 0-199.3728 208.6912C107.383467 770.594133 47.104 647.68 47.104 510.8736 47.104 255.7952 255.7952 47.104 510.8736 47.104s463.7696 208.6912 463.7696 463.7696c0 136.8064-60.279467 259.720533-155.374933 345.4976z"></path>
</svg>
