<svg class="icon" width="200" height="200" viewBox="0 0 1024 1024" xmlns="http://www.w3.org/2000/svg">
    <path d="M64.67 512c2.03-148.27 27.78-271.04 103.07-344.26C240.96 92.45 363.73 66.7 512 64.67c148.27 2.03 271.04 27.78 344.26 103.07C931.55 240.96 957.3 363.73 959.33 512c-2.03 148.27-27.78 271.04-103.07 344.26C783.04 931.55 660.27 957.3 512 959.33c-148.27-2.03-271.04-27.78-344.26-103.07C92.45 783.04 66.7 660.27 64.67 512z"></path>
    <path d="M676.18 470.84l-243-135.24c-31.39-17.47-70 5.23-70 41.16v270.48c0 35.93 38.61 58.63 70 41.16l243-135.24c32.26-17.96 32.26-64.36 0-82.32z"
          fill="#FFFFFF"></path>
</svg>
