<svg class="icon" width="200" height="200" viewBox="0 0 1024 1024" xmlns="http://www.w3.org/2000/svg">
    <path d="M57.697103 673.114041c-24.152276 0.310731-45.515034-17.810538-48.940137-42.541903-19.427752-136.954703-1.405352-256 52.344055-352.955145 54.229628-97.830841 145.337379-174.644966 270.1312-228.79691 211.777324-91.58091 436.972579-41.553214 668.121158 147.102896a48.989572 48.989572 0 0 1 6.659531 69.349518 48.989572 48.989572 0 0 1-69.349517 6.659531c-203.288717-165.782069-388.314924-208.966621-566.151945-132.258428-209.927062 90.3168-296.606897 246.678069-264.177876 477.607724 4.004193 26.772303-15.183448 52.111007-41.948689 56.1152l-6.694842-0.282483zM155.083034 969.177159a49.434483 49.434483 0 0 1-43.389351-25.762428l-37.993931-68.452634c-13.509738-24.046345-4.420855-53.834152 19.625489-67.336828 24.046345-13.509738 53.834152-4.420855 67.34389 19.62549l37.30891 68.64331c13.509738 24.046345 4.420855 53.834152-19.625489 67.34389-6.885517 4.173683-15.028083 6.511228-23.27658 5.932138zM876.353324 912.221572c-13.191945 0.112993-26.58869-5.600221-36.878124-15.868469-94.384552-103.706483-206.805628-193.430069-334.629076-267.70891-23.777986-13.749848-31.666317-43.813076-17.916469-67.598124 13.749848-23.777986 43.820138-31.659255 67.598124-17.909407 136.559228 79.123421 256.939255 176.106814 357.736166 286.790621 18.354317 20.451752 17.019586 51.694345-3.425104 70.0416-8.629848 8.354428-20.64949 12.535172-32.485517 12.252689z"></path>
    <path d="M549.005241 1020.779697c-10.967393 0.2048-22.415007-3.862952-31.249655-11.610042-41.454345-34.399338-123.896938-124.631393-163.642262-194.051531-27.499697-47.216993-110.281269-192.448441-71.609379-329.163034 20.006841-71.129159 69.624938-128.699145 146.509683-170.577214 95.88171-52.471172 187.674483-29.575945 296.366786 21.53931 24.554814 11.327559 35.352717 41.291917 24.025158 65.846731-11.327559 24.547752-41.291917 35.345655-65.846731 24.018097-100.634483-46.072938-154.673434-52.619476-207.321158-23.566124-53.318621 29.25109-85.691145 64.978097-99.031393 110.676744-27.358455 96.743283 40.070179 214.05131 62.132082 252.539587 33.516579 57.979586 106.73611 139.108634 140.42218 166.912a48.989572 48.989572 0 0 1 6.666593 69.349517c-9.0112 12.139697-23.361324 18.460248-37.428966 18.078896z m424.677518-414.910676c-10.282372 0.014124-20.861352-3.566345-29.985545-9.766842-33.5872-24.900855-59.695669-41.659145-83.473655-55.408993-17.867034-11.038014-34.653572-20.917848-50.479669-32.542014-21.645241-16.567614-26.136717-47.605407-9.569104-69.25771 16.567614-21.645241 47.598345-26.136717 69.250648-9.569103 12.132634 9.0112 26.306207 17.436248 42.414787 27.506758 23.975724 14.434869 54.257876 32.930428 91.736276 61.122207 21.645241 16.567614 26.129655 47.605407 9.569103 69.25771-9.886897 11.652414-24.039283 18.643862-39.462841 18.657987z"></path>
</svg>
